<?xml version="1.0" standalone="no"?>
<!DOCTYPE svg PUBLIC "-//W3C//DTD SVG 20010904//EN"
 "http://www.w3.org/TR/2001/REC-SVG-20010904/DTD/svg10.dtd">
<svg version="1.0" xmlns="http://www.w3.org/2000/svg"
 width="256.000000pt" height="256.000000pt" viewBox="0 0 256.000000 256.000000"
 preserveAspectRatio="xMidYMid meet">
<metadata>
Created by potrace 1.11, written by Peter Selinger 2001-2013
</metadata>
<g transform="translate(0.000000,256.000000) scale(0.100000,-0.100000)"
fill="#000000" stroke="none">
<path d="M1141 2434 c-178 -48 -329 -201 -376 -379 -8 -33 -15 -76 -15 -96 l0
-37 -143 -4 c-137 -3 -145 -4 -185 -31 -23 -15 -54 -46 -69 -69 l-28 -42 -3
-696 -3 -697 29 -54 c20 -39 41 -62 77 -84 l48 -30 807 0 807 0 48 30 c36 22
57 45 77 84 l28 53 0 675 c0 506 -3 686 -12 717 -16 53 -81 118 -134 134 -23
6 -96 12 -163 12 l-121 0 0 38 c0 21 -7 64 -15 97 -47 181 -199 333 -380 380
-73 19 -202 18 -274 -1z m274 -225 c95 -45 165 -138 180 -242 l7 -47 -321 0
-321 0 0 25 c0 38 29 116 62 162 82 120 259 166 393 102z m-451 -547 c13 -100
80 -192 178 -244 36 -19 58 -23 138 -23 80 0 102 4 138 23 98 52 165 144 178
244 l7 48 103 0 104 0 0 -38 c0 -145 -106 -324 -244 -414 -169 -109 -403 -109
-572 0 -139 90 -244 268 -244 414 l0 38 104 0 103 0 7 -48z"/>
</g>
</svg>
